<svg xmlns="http://www.w3.org/2000/svg" width="502" height="502" viewBox="0 0 502 502"><defs><linearGradient id="ipwva" x1="0" x2="502" y1="477" y2="25" gradientUnits="userSpaceOnUse"><stop offset="0" stop-color="#5fc18b"/><stop offset=".11" stop-color="#5fc18b"/><stop offset="1" stop-color="#42a16c"/></linearGradient></defs><g><g><path fill="#4ba875" d="M492.437 47.812a9.562 9.562 0 0 1 9.562 9.562v86.063a9.54 9.54 0 0 1-3.319 7.243 9.622 9.622 0 0 1-1 1 9.622 9.622 0 0 1-1 1 9.624 9.624 0 0 1-1 1 9.62 9.62 0 0 1-1 1 9.623 9.623 0 0 1-1 1 9.622 9.622 0 0 1-1 1 9.622 9.622 0 0 1-1 1 9.624 9.624 0 0 1-1 1 9.622 9.622 0 0 1-1 1 9.621 9.621 0 0 1-1 1 9.623 9.623 0 0 1-1 1 9.622 9.622 0 0 1-1 1 9.624 9.624 0 0 1-1 1 9.622 9.622 0 0 1-1 1 9.623 9.623 0 0 1-1 1 9.623 9.623 0 0 1-1 1 9.622 9.622 0 0 1-1 1 9.624 9.624 0 0 1-1 1 9.622 9.622 0 0 1-1 1 9.623 9.623 0 0 1-1 1 9.622 9.622 0 0 1-1 1 9.622 9.622 0 0 1-1 1 9.624 9.624 0 0 1-1 1 9.622 9.622 0 0 1-1 1 9.623 9.623 0 0 1-1 1 9.621 9.621 0 0 1-1 1 9.622 9.622 0 0 1-1 1 9.624 9.624 0 0 1-1 1 9.622 9.622 0 0 1-1 1 9.623 9.623 0 0 1-1 1 9.621 9.621 0 0 1-1 1 9.622 9.622 0 0 1-1 1 9.622 9.622 0 0 1-1 1 9.62 9.62 0 0 1-1 1 9.623 9.623 0 0 1-1 1 9.622 9.622 0 0 1-1 1 9.622 9.622 0 0 1-1 1 9.624 9.624 0 0 1-1 1 9.62 9.62 0 0 1-1 1 9.623 9.623 0 0 1-1 1 9.622 9.622 0 0 1-1 1 9.622 9.622 0 0 1-1 1 9.621 9.621 0 0 1-1 1 9.622 9.622 0 0 1-1 1 9.623 9.623 0 0 1-1 1 9.623 9.623 0 0 1-1 1 9.622 9.622 0 0 1-1 1 9.624 9.624 0 0 1-1 1 9.622 9.622 0 0 1-1 1 9.623 9.623 0 0 1-1 1 9.623 9.623 0 0 1-1 1 9.622 9.622 0 0 1-1 1 9.624 9.624 0 0 1-1 1 9.623 9.623 0 0 1-1 1 9.622 9.622 0 0 1-1 1 9.621 9.621 0 0 1-1 1 9.622 9.622 0 0 1-1 1 9.624 9.624 0 0 1-1 1 9.622 9.622 0 0 1-1 1 9.623 9.623 0 0 1-1 1 9.621 9.621 0 0 1-1 1 9.622 9.622 0 0 1-1 1 9.624 9.624 0 0 1-1 1 9.622 9.622 0 0 1-1 1 9.623 9.623 0 0 1-1 1 9.622 9.622 0 0 1-1 1 9.623 9.623 0 0 1-1 1 9.624 9.624 0 0 1-1 1 9.62 9.62 0 0 1-1 1 9.623 9.623 0 0 1-1 1 9.622 9.622 0 0 1-1 1 9.622 9.622 0 0 1-1 1 9.624 9.624 0 0 1-1 1 9.62 9.62 0 0 1-1 1 9.623 9.623 0 0 1-1 1 9.62 9.62 0 0 1-1 1 9.622 9.622 0 0 1-1 1 9.624 9.624 0 0 1-1 1 9.622 9.622 0 0 1-1 1 9.623 9.623 0 0 1-1 1 9.623 9.623 0 0 1-1 1 9.622 9.622 0 0 1-1 1 9.624 9.624 0 0 1-1 1 9.622 9.622 0 0 1-1 1 9.623 9.623 0 0 1-1 1 9.623 9.623 0 0 1-1 1 9.622 9.622 0 0 1-1 1 9.623 9.623 0 0 1-1 1 9.62 9.62 0 0 1-1 1 9.623 9.623 0 0 1-1 1 9.621 9.621 0 0 1-1 1 9.622 9.622 0 0 1-1 1 9.624 9.624 0 0 1-1 1 9.622 9.622 0 0 1-1 1 9.623 9.623 0 0 1-1 1 9.621 9.621 0 0 1-1 1 9.622 9.622 0 0 1-1 1 9.624 9.624 0 0 1-1 1 9.622 9.622 0 0 1-1 1 9.62 9.62 0 0 1-1 1 9.623 9.623 0 0 1-1 1 9.622 9.622 0 0 1-1 1 9.624 9.624 0 0 1-1 1 9.62 9.62 0 0 1-1 1 9.623 9.623 0 0 1-1 1 9.622 9.622 0 0 1-1 1 9.622 9.622 0 0 1-1 1 9.624 9.624 0 0 1-1 1 9.62 9.62 0 0 1-1 1 9.621 9.621 0 0 1-1 1 9.621 9.621 0 0 1-1 1 9.622 9.622 0 0 1-1 1 9.624 9.624 0 0 1-1 1 9.622 9.622 0 0 1-1 1 9.623 9.623 0 0 1-1 1 9.623 9.623 0 0 1-1 1 9.622 9.622 0 0 1-1 1 9.624 9.624 0 0 1-1 1 9.622 9.622 0 0 1-1 1 9.623 9.623 0 0 1-1 1 9.623 9.623 0 0 1-1 1 9.621 9.621 0 0 1-1 1 9.624 9.624 0 0 1-1 1 9.622 9.622 0 0 1-1 1 9.623 9.623 0 0 1-1 1 9.621 9.621 0 0 1-1 1 9.622 9.622 0 0 1-1 1 9.624 9.624 0 0 1-1 1 9.622 9.622 0 0 1-1 1 9.623 9.623 0 0 1-1 1 9.621 9.621 0 0 1-1 1 9.622 9.622 0 0 1-1 1 9.623 9.623 0 0 1-1 1 9.622 9.622 0 0 1-1 1 9.623 9.623 0 0 1-1 1 9.622 9.622 0 0 1-1 1 9.622 9.622 0 0 1-1 1 9.624 9.624 0 0 1-1 1 9.62 9.62 0 0 1-1 1 9.623 9.623 0 0 1-1 1 9.622 9.622 0 0 1-1 1 9.622 9.622 0 0 1-1 1 9.621 9.621 0 0 1-1 1 9.623 9.623 0 0 1-1 1 9.623 9.623 0 0 1-1 1 9.623 9.623 0 0 1-1 1 9.622 9.622 0 0 1-1 1 9.624 9.624 0 0 1-1 1 9.622 9.622 0 0 1-1 1 9.623 9.623 0 0 1-1 1 9.623 9.623 0 0 1-1 1 9.622 9.622 0 0 1-1 1 9.624 9.624 0 0 1-1 1 9.622 9.622 0 0 1-1 1 9.623 9.623 0 0 1-1 1 9.622 9.622 0 0 1-1 1 9.622 9.622 0 0 1-1 1 9.624 9.624 0 0 1-1 1 9.622 9.622 0 0 1-1 1 9.623 9.623 0 0 1-1 1 9.621 9.621 0 0 1-1 1 9.622 9.622 0 0 1-1 1 9.624 9.624 0 0 1-1 1 9.622 9.622 0 0 1-1 1 9.623 9.623 0 0 1-1 1 9.621 9.621 0 0 1-1 1 9.622 9.622 0 0 1-1 1 9.622 9.622 0 0 1-1 1 9.62 9.62 0 0 1-1 1 9.623 9.623 0 0 1-1 1 9.622 9.622 0 0 1-1 1 9.622 9.622 0 0 1-1 1 9.624 9.624 0 0 1-1 1 9.62 9.62 0 0 1-1 1 9.623 9.623 0 0 1-1 1 9.622 9.622 0 0 1-1 1 9.622 9.622 0 0 1-1 1 9.621 9.621 0 0 1-1 1 9.622 9.622 0 0 1-1 1 9.623 9.623 0 0 1-1 1 9.623 9.623 0 0 1-1 1 9.622 9.622 0 0 1-1 1 9.624 9.624 0 0 1-1 1 9.622 9.622 0 0 1-1 1 9.623 9.623 0 0 1-1 1 9.623 9.623 0 0 1-1 1 9.622 9.622 0 0 1-1 1 9.624 9.624 0 0 1-1 1 9.623 9.623 0 0 1-1 1 9.622 9.622 0 0 1-1 1 9.621 9.621 0 0 1-1 1 9.622 9.622 0 0 1-1 1 9.624 9.624 0 0 1-1 1 9.622 9.622 0 0 1-1 1 9.623 9.623 0 0 1-1 1 9.621 9.621 0 0 1-1 1 9.622 9.622 0 0 1-1 1 9.624 9.624 0 0 1-1 1 9.622 9.622 0 0 1-1 1 9.623 9.623 0 0 1-1 1 9.622 9.622 0 0 1-1 1 9.623 9.623 0 0 1-1 1 9.624 9.624 0 0 1-1 1 9.62 9.62 0 0 1-1 1 9.623 9.623 0 0 1-1 1 9.622 9.622 0 0 1-1 1 9.622 9.622 0 0 1-1 1 9.624 9.624 0 0 1-1 1 9.62 9.62 0 0 1-1 1 9.623 9.623 0 0 1-1 1 9.62 9.62 0 0 1-1 1 9.622 9.622 0 0 1-1 1 9.624 9.624 0 0 1-1 1 9.622 9.622 0 0 1-1 1 9.623 9.623 0 0 1-1 1 9.623 9.623 0 0 1-1 1 9.622 9.622 0 0 1-1 1 9.624 9.624 0 0 1-1 1 9.622 9.622 0 0 1-1 1 9.623 9.623 0 0 1-1 1 9.623 9.623 0 0 1-1 1 9.621 9.621 0 0 1-1 1 9.622 9.622 0 0 1-1 1 9.622 9.622 0 0 1-1 1 9.623 9.623 0 0 1-1 1 9.621 9.621 0 0 1-1 1 9.622 9.622 0 0 1-1 1 9.624 9.624 0 0 1-1 1 9.622 9.622 0 0 1-1 1 9.623 9.623 0 0 1-1 1 9.621 9.621 0 0 1-1 1 9.622 9.622 0 0 1-1 1 9.624 9.624 0 0 1-1 1 9.623 9.623 0 0 1-1 1 9.622 9.622 0 0 1-1 1 9.622 9.622 0 0 1-1 1 9.622 9.622 0 0 1-1 1 9.624 9.624 0 0 1-1 1 9.62 9.62 0 0 1-1 1 9.623 9.623 0 0 1-1 1 9.622 9.622 0 0 1-1 1 9.622 9.622 0 0 1-1 1 9.624 9.624 0 0 1-1 1 9.622 9.622 0 0 1-1 1 9.621 9.621 0 0 1-1 1 9.623 9.623 0 0 1-1 1 9.622 9.622 0 0 1-1 1 9.624 9.624 0 0 1-1 1 9.622 9.622 0 0 1-1 1 9.623 9.623 0 0 1-1 1 9.623 9.623 0 0 1-1 1 9.622 9.622 0 0 1-1 1 9.624 9.624 0 0 1-1 1 9.622 9.622 0 0 1-1 1 9.623 9.623 0 0 1-1 1 9.623 9.623 0 0 1-1 1 9.621 9.621 0 0 1-1 1 9.624 9.624 0 0 1-1 1 9.622 9.622 0 0 1-1 1 9.623 9.623 0 0 1-1 1 9.621 9.621 0 0 1-1 1 9.622 9.622 0 0 1-1 1 9.624 9.624 0 0 1-1 1 9.622 9.622 0 0 1-1 1 9.623 9.623 0 0 1-1 1 9.621 9.621 0 0 1-1 1 9.622 9.622 0 0 1-1 1 9.623 9.623 0 0 1-1 1 9.622 9.622 0 0 1-1 1 9.623 9.623 0 0 1-1 1 9.622 9.622 0 0 1-1 1 9.622 9.622 0 0 1-1 1 9.624 9.624 0 0 1-1 1 9.62 9.62 0 0 1-1 1 9.623 9.623 0 0 1-1 1 9.622 9.622 0 0 1-1 1 9.622 9.622 0 0 1-1 1 9.621 9.621 0 0 1-1 1 9.623 9.623 0 0 1-1 1 9.623 9.623 0 0 1-1 1 9.623 9.623 0 0 1-1 1 9.622 9.622 0 0 1-1 1 9.624 9.624 0 0 1-1 1 9.622 9.622 0 0 1-1 1 9.623 9.623 0 0 1-1 1 9.623 9.623 0 0 1-1 1 9.622 9.622 0 0 1-1 1 9.624 9.624 0 0 1-1 1 9.622 9.622 0 0 1-1 1 9.623 9.623 0 0 1-1 1 9.622 9.622 0 0 1-1 1 9.622 9.622 0 0 1-1 1 9.624 9.624 0 0 1-1 1 9.622 9.622 0 0 1-1 1 9.623 9.623 0 0 1-1 1 9.621 9.621 0 0 1-1 1 9.622 9.622 0 0 1-1 1 9.624 9.624 0 0 1-1 1 9.622 9.622 0 0 1-1 1 9.623 9.623 0 0 1-1 1 9.621 9.621 0 0 1-1 1 9.622 9.622 0 0 1-1 1 9.622 9.622 0 0 1-1 1 9.62 9.62 0 0 1-1 1 9.623 9.623 0 0 1-1 1 9.622 9.622 0 0 1-1 1 9.622 9.622 0 0 1-1 1 9.624 9.624 0 0 1-1 1 9.62 9.62 0 0 1-1 1 9.623 9.623 0 0 1-1 1 9.622 9.622 0 0 1-1 1 9.622 9.622 0 0 1-1 1 9.621 9.621 0 0 1-1 1 9.622 9.622 0 0 1-1 1 9.623 9.623 0 0 1-1 1 9.623 9.623 0 0 1-1 1 9.622 9.622 0 0 1-1 1 9.624 9.624 0 0 1-1 1 9.622 9.622 0 0 1-1 1 9.623 9.623 0 0 1-1 1 9.623 9.623 0 0 1-1 1 9.622 9.622 0 0 1-1 1 9.623 9.623 0 0 1-1 1 9.62 9.62 0 0 1-1 1 9.623 9.623 0 0 1-1 1 9.621 9.621 0 0 1-1 1 9.622 9.622 0 0 1-1 1 9.624 9.624 0 0 1-1 1 9.622 9.622 0 0 1-1 1 9.623 9.623 0 0 1-1 1 9.621 9.621 0 0 1-1 1 9.622 9.622 0 0 1-1 1 9.624 9.624 0 0 1-1 1 9.622 9.622 0 0 1-1 1 9.62 9.62 0 0 1-1 1 9.623 9.623 0 0 1-1 1 9.622 9.622 0 0 1-1 1 9.624 9.624 0 0 1-1 1 9.62 9.62 0 0 1-1 1 9.623 9.623 0 0 1-1 1 9.622 9.622 0 0 1-1 1 9.622 9.622 0 0 1-1 1 9.624 9.624 0 0 1-1 1 9.62 9.62 0 0 1-1 1 9.621 9.621 0 0 1-1 1 9.621 9.621 0 0 1-1 1 9.622 9.622 0 0 1-1 1 9.624 9.624 0 0 1-1 1 9.54 9.54 0 0 1-7.243 3.32H28.687c-5.281 0-9.563-4.282-9.563-9.563v-4.78h114.75v-76.5h-23.906v-14.345h1v-1h1v-1h1v-1h1v-1h1v-1h1v-1h1v-1h1v-1h1v-1h1v-1h1v-1h1v-1h1v-1h1v-1h1v-1h1v-1h1v-1h1v-1h1v-1h1v-1h1v-1h1v-1h1v-1h1v-1h1v-1h1v-1h1v-1h1v-1h1v-1h1v-1h1v-1h1v-1h1v-1h1v-1h1v-1h1v-1h1v-1h1v-1h1v-1h1v-1h1v-1h1v-1h1v-1h1v-1h1v-1h1v-1h1v-1h1v-1h1v-1h1v-1h1v-1h1v-1h1v-1h1v-1h1v-1h1v-1h1v-1h1v-1h1v-1h1v-1h1v-1h1v-1h1v-1h1v-1h1v-1h1v-1h1v-1h1v-1h1v-1h1v-1h1v-1h1v-1h1v-1h1v-1h1v-1h1v-1h1v-1h1v-1h1v-1h1v-1h1v-1h1v-1h1v-1h1v-1h1v-1h1v-1h1v-1h1v-1h1v-1h1v-1h1v-1h1v-1h1v-1h1v-1h1v-1h1v-1h1v-1h1v-1h1v-1h1v-1h1v-1h1v-1h1v-1h1v-1h1v-1h1v-1h1v-1h1v-1h1v-1h1v-1h1v-1h1v-1h1v-1h1v-1h1v-1h1v-1h1v-1h1v-1h1v-1h1v-1h1v-1h1v-1h1v-1h1v-1h1v-1h1v-1h1v-1h1v-1h1v-1h1v-1h1v-1h1v-1h1v-1h1v-1h1v-1h1v-1h1v-1h1v-1h1v-1h1v-1h1v-1h1v-1h1v-1h1v-1h1v-1h1v-1h1v-1h1v-1h1v-1h1v-1h1v-1h1v-1h1v-1h1v-1h1v-1h1v-1h1v-1h1v-1h1v-1h1v-1h1v-1h1v-1h1v-1h1v-1h1v-1h1v-1h1v-1h1v-1h1v-1h1v-1h1v-1h1v-1h1v-1h1v-1h1v-1h1v-1h1v-1h1v-1h1v-1h1v-1h1v-1h1v-1h1v-1h1v-1h1v-1h1v-1h1v-1h1v-1h1v-1h1v-1h1v-1h1v-1h1v-1h1v-1h1v-1h1v-1h1v-1h1v-1h1v-1h1v-1h1v-1h1v-1h1v-1h1v-1h1v-1h1v-1h1v-1h1v-1h1v-1h1v-1h1v-1h1v-1h1v-1h1v-1h1v-1h1v-1h1v-1h1v-1h1v-1h1v-1h1v-1h1v-1h1v-1h1v-1h1v-1h1v-1h1v-1h1v-1h1v-1h1v-1h1v-1h1v-1h1v-1h1v-1h1v-1h1v-1h1v-1h1v-1h1v-1h1v-1h1v-1h1v-1h1v-1h1v-1h1v-1h1v-1h1v-1h1v-1h1v-1h1v-1h1v-1h1v-1h1v-1h1v-1h1v-1h1v-1h1v-1h1v-1h1v-1h1v-1h1v-1h1v-1h1v-1h1v-1h1v-1h1v-1h1v-1h1v-1h1v-1h1v-1h1v-1h1v-1h.999v-1h1v-1h1v-1h1v-1h1v-1h1v-1h1v-1h1v-1h1v-1h1v-1h1v-1h1v-1h1v-1h1v-1h1v-1h1v-1h1v-1h1v-1h1v-1h1v-1h1v-1h1v-1h1v-1h1v-1h1v-1h1v-1h1v-1h1v-1h1v-1h1v-1h1v-1h1v-1h1v-1h1v-1h1v-1h1v-1h1v-1h1v-1h1v-1h1v-1h1v-1h1v-1h1v-1h1v-1h1v-1h1v-1h1v-1h1v-1h1v-1h1v-1h1v-1h1v-1h1v-1h1v-1h1v-1h1v-1h1v-1h1v-1h1v-1h1v-1h1v-1h1v-1h1v-1h1v-1h1v-1h1v-1h1V57.81h1v-1h1v-1h1v-1h1v-1h1v-1h1v-1h1v-1h1v-1h1v-1h1v-1zM4.318 350.318a9.623 9.623 0 0 1 1-1 9.622 9.622 0 0 1 1-1 9.623 9.623 0 0 1 1-1 9.622 9.622 0 0 1 1-1 9.62 9.62 0 0 1 1-1 9.622 9.622 0 0 1 1-1 9.622 9.622 0 0 1 1-1 9.622 9.622 0 0 1 1-1 9.623 9.623 0 0 1 1-1 9.62 9.62 0 0 1 1-1 9.621 9.621 0 0 1 1-1 9.622 9.622 0 0 1 1-1 9.623 9.623 0 0 1 1-1 9.623 9.623 0 0 1 1-1 9.62 9.62 0 0 1 1-1 9.624 9.624 0 0 1 1-1 9.622 9.622 0 0 1 1-1 9.623 9.623 0 0 1 1-1 9.623 9.623 0 0 1 1-1 9.62 9.62 0 0 1 1-1 9.624 9.624 0 0 1 1-1 9.623 9.623 0 0 1 1-1 9.622 9.622 0 0 1 1-1 9.622 9.622 0 0 1 1-1 9.62 9.62 0 0 1 1-1 9.623 9.623 0 0 1 1-1 9.622 9.622 0 0 1 1-1 9.623 9.623 0 0 1 1-1 9.622 9.622 0 0 1 1-1 9.62 9.62 0 0 1 1-1 9.623 9.623 0 0 1 1-1 9.622 9.622 0 0 1 1-1 9.623 9.623 0 0 1 1-1 9.622 9.622 0 0 1 1-1 9.62 9.62 0 0 1 1-1 9.623 9.623 0 0 1 1-1 9.622 9.622 0 0 1 1-1 9.623 9.623 0 0 1 1-1 9.622 9.622 0 0 1 1-1 9.622 9.622 0 0 1 1-1 9.624 9.624 0 0 1 1-1 9.622 9.622 0 0 1 1-1 9.622 9.622 0 0 1 1-1 9.621 9.621 0 0 1 1-1 9.622 9.622 0 0 1 1-1 9.624 9.624 0 0 1 1-1 9.622 9.622 0 0 1 1-1 9.623 9.623 0 0 1 1-1 9.623 9.623 0 0 1 1-1 9.62 9.62 0 0 1 1-1 9.624 9.624 0 0 1 1-1 9.622 9.622 0 0 1 1-1 9.623 9.623 0 0 1 1-1 9.623 9.623 0 0 1 1-1 9.62 9.62 0 0 1 1-1 9.623 9.623 0 0 1 1-1 9.622 9.622 0 0 1 1-1 9.623 9.623 0 0 1 1-1 9.622 9.622 0 0 1 1-1 9.62 9.62 0 0 1 1-1 9.623 9.623 0 0 1 1-1 9.622 9.622 0 0 1 1-1 9.623 9.623 0 0 1 1-1 9.622 9.622 0 0 1 1-1 9.62 9.62 0 0 1 1-1 9.623 9.623 0 0 1 1-1 9.622 9.622 0 0 1 1-1 9.623 9.623 0 0 1 1-1 9.622 9.622 0 0 1 1-1 9.62 9.62 0 0 1 1-1 9.623 9.623 0 0 1 1-1 9.622 9.622 0 0 1 1-1 9.622 9.622 0 0 1 1-1 9.623 9.623 0 0 1 1-1 9.62 9.62 0 0 1 1-1 9.624 9.624 0 0 1 1-1 9.622 9.622 0 0 1 1-1 9.623 9.623 0 0 1 1-1 9.624 9.624 0 0 1 1-1 9.62 9.62 0 0 1 1-1 9.624 9.624 0 0 1 1-1 9.622 9.622 0 0 1 1-1 9.623 9.623 0 0 1 1-1 9.623 9.623 0 0 1 1-1 9.62 9.62 0 0 1 1-1 9.624 9.624 0 0 1 1-1 9.622 9.622 0 0 1 1-1 9.623 9.623 0 0 1 1-1 9.623 9.623 0 0 1 1-1 9.622 9.622 0 0 1 1-1 9.622 9.622 0 0 1 1-1 9.622 9.622 0 0 1 1-1 9.623 9.623 0 0 1 1-1 9.622 9.622 0 0 1 1-1 9.62 9.62 0 0 1 1-1 9.623 9.623 0 0 1 1-1 9.622 9.622 0 0 1 1-1 9.623 9.623 0 0 1 1-1 9.622 9.622 0 0 1 1-1 9.62 9.62 0 0 1 1-1 9.623 9.623 0 0 1 1-1 9.622 9.622 0 0 1 1-1 9.623 9.623 0 0 1 1-1 9.622 9.622 0 0 1 1-1 9.62 9.62 0 0 1 1-1 9.623 9.623 0 0 1 1-1 9.621 9.621 0 0 1 1-1 9.621 9.621 0 0 1 1-1 9.623 9.623 0 0 1 1-1 9.62 9.62 0 0 1 1-1 9.624 9.624 0 0 1 1-1 9.62 9.62 0 0 1 1-1 9.622 9.622 0 0 1 1-1 9.623 9.623 0 0 1 1-1 9.62 9.62 0 0 1 1-1 9.624 9.624 0 0 1 1-1 9.622 9.622 0 0 1 1-1 9.623 9.623 0 0 1 1-1 9.623 9.623 0 0 1 1-1 9.62 9.62 0 0 1 1-1 9.624 9.624 0 0 1 1-1 9.622 9.622 0 0 1 1-1 9.62 9.62 0 0 1 1-1 9.621 9.621 0 0 1 1-1 9.62 9.62 0 0 1 1-1 9.623 9.623 0 0 1 1-1 9.622 9.622 0 0 1 1-1 9.623 9.623 0 0 1 1-1 9.622 9.622 0 0 1 1-1 9.62 9.62 0 0 1 1-1 9.623 9.623 0 0 1 1-1 9.622 9.622 0 0 1 1-1 9.623 9.623 0 0 1 1-1 9.622 9.622 0 0 1 1-1 9.62 9.62 0 0 1 1-1 9.623 9.623 0 0 1 1-1 9.622 9.622 0 0 1 1-1 9.623 9.623 0 0 1 1-1 9.622 9.622 0 0 1 1-1 9.622 9.622 0 0 1 1-1 9.622 9.622 0 0 1 1-1 9.622 9.622 0 0 1 1-1 9.622 9.622 0 0 1 1-1 9.623 9.623 0 0 1 1-1 9.62 9.62 0 0 1 1-1 9.621 9.621 0 0 1 1-1 9.622 9.622 0 0 1 1-1 9.623 9.623 0 0 1 1-1 9.623 9.623 0 0 1 1-1 9.62 9.62 0 0 1 1-1 9.624 9.624 0 0 1 1-1 9.622 9.622 0 0 1 1-1 9.623 9.623 0 0 1 1-1 9.623 9.623 0 0 1 1-1 9.62 9.62 0 0 1 1-1 9.624 9.624 0 0 1 1-1 9.623 9.623 0 0 1 1-1 9.622 9.622 0 0 1 1-1 9.622 9.622 0 0 1 1-1 9.62 9.62 0 0 1 1-1 9.623 9.623 0 0 1 1-1 9.622 9.622 0 0 1 1-1 9.623 9.623 0 0 1 1-1 9.622 9.622 0 0 1 1-1 9.62 9.62 0 0 1 1-1 9.623 9.623 0 0 1 1-1 9.622 9.622 0 0 1 1-1 9.623 9.623 0 0 1 1-1 9.622 9.622 0 0 1 1-1 9.62 9.62 0 0 1 1-1 9.623 9.623 0 0 1 1-1 9.622 9.622 0 0 1 1-1 9.623 9.623 0 0 1 1-1 9.622 9.622 0 0 1 1-1 9.622 9.622 0 0 1 1-1 9.624 9.624 0 0 1 1-1 9.622 9.622 0 0 1 1-1 9.622 9.622 0 0 1 1-1 9.621 9.621 0 0 1 1-1 9.622 9.622 0 0 1 1-1 9.624 9.624 0 0 1 1-1 9.622 9.622 0 0 1 1-1 9.623 9.623 0 0 1 1-1 9.623 9.623 0 0 1 1-1 9.62 9.62 0 0 1 1-1 9.624 9.624 0 0 1 1-1 9.622 9.622 0 0 1 1-1 9.623 9.623 0 0 1 1-1 9.623 9.623 0 0 1 1-1 9.62 9.62 0 0 1 1-1 9.623 9.623 0 0 1 1-1 9.622 9.622 0 0 1 1-1 9.623 9.623 0 0 1 1-1 9.622 9.622 0 0 1 1-1 9.62 9.62 0 0 1 1-1 9.623 9.623 0 0 1 1-1 9.622 9.622 0 0 1 1-1 9.623 9.623 0 0 1 1-1 9.622 9.622 0 0 1 1-1 9.62 9.62 0 0 1 1-1 9.623 9.623 0 0 1 1-1 9.622 9.622 0 0 1 1-1 9.623 9.623 0 0 1 1-1 9.622 9.622 0 0 1 1-1 9.62 9.62 0 0 1 1-1 9.623 9.623 0 0 1 1-1 9.622 9.622 0 0 1 1-1 9.622 9.622 0 0 1 1-1 9.623 9.623 0 0 1 1-1 9.62 9.62 0 0 1 1-1 9.624 9.624 0 0 1 1-1 9.622 9.622 0 0 1 1-1 9.623 9.623 0 0 1 1-1 9.624 9.624 0 0 1 1-1 9.62 9.62 0 0 1 1-1 9.624 9.624 0 0 1 1-1 9.622 9.622 0 0 1 1-1 9.623 9.623 0 0 1 1-1 9.623 9.623 0 0 1 1-1 9.62 9.62 0 0 1 1-1 9.624 9.624 0 0 1 1-1 9.622 9.622 0 0 1 1-1 9.623 9.623 0 0 1 1-1 9.622 9.622 0 0 1 1-1 9.623 9.623 0 0 1 1-1 9.623 9.623 0 0 1 1-1 9.622 9.622 0 0 1 1-1 9.623 9.623 0 0 1 1-1 9.622 9.622 0 0 1 1-1 9.62 9.62 0 0 1 1-1 9.623 9.623 0 0 1 1-1 9.622 9.622 0 0 1 1-1 9.623 9.623 0 0 1 1-1 9.622 9.622 0 0 1 1-1 9.62 9.62 0 0 1 1-1 9.623 9.623 0 0 1 1-1 9.622 9.622 0 0 1 1-1 9.623 9.623 0 0 1 1-1 9.622 9.622 0 0 1 1-1 9.62 9.62 0 0 1 1-1 9.622 9.622 0 0 1 1-1 9.622 9.622 0 0 1 1-1 9.622 9.622 0 0 1 1-1 9.623 9.623 0 0 1 1-1 9.62 9.62 0 0 1 1-1 9.621 9.621 0 0 1 1-1 9.622 9.622 0 0 1 1-1 9.623 9.623 0 0 1 1-1 9.623 9.623 0 0 1 1-1 9.62 9.62 0 0 1 1-1 9.624 9.624 0 0 1 1-1 9.622 9.622 0 0 1 1-1 9.623 9.623 0 0 1 1-1 9.623 9.623 0 0 1 1-1 9.62 9.62 0 0 1 1-1 9.624 9.624 0 0 1 1-1 9.622 9.622 0 0 1 1-1 9.62 9.62 0 0 1 1-1 9.621 9.621 0 0 1 1-1 9.62 9.62 0 0 1 1-1 9.623 9.623 0 0 1 1-1 9.622 9.622 0 0 1 1-1 9.623 9.623 0 0 1 1-1 9.622 9.622 0 0 1 1-1 9.62 9.62 0 0 1 1-1 9.623 9.623 0 0 1 1-1 9.622 9.622 0 0 1 1-1 9.623 9.623 0 0 1 1-1 9.622 9.622 0 0 1 1-1 9.62 9.62 0 0 1 1-1 9.623 9.623 0 0 1 1-1 9.622 9.622 0 0 1 1-1 9.623 9.623 0 0 1 1-1 9.622 9.622 0 0 1 1-1 9.622 9.622 0 0 1 1-1 9.622 9.622 0 0 1 1-1 9.622 9.622 0 0 1 1-1 9.622 9.622 0 0 1 1-1 9.623 9.623 0 0 1 1-1 9.62 9.62 0 0 1 1-1 9.621 9.621 0 0 1 1-1 9.622 9.622 0 0 1 1-1 9.623 9.623 0 0 1 1-1 9.623 9.623 0 0 1 1-1 9.62 9.62 0 0 1 1-1 9.624 9.624 0 0 1 1-1 9.622 9.622 0 0 1 1-1 9.623 9.623 0 0 1 1-1 9.623 9.623 0 0 1 1-1 9.62 9.62 0 0 1 1-1 9.624 9.624 0 0 1 1-1 9.623 9.623 0 0 1 1-1 9.622 9.622 0 0 1 1-1 9.622 9.622 0 0 1 1-1 9.62 9.62 0 0 1 1-1 9.623 9.623 0 0 1 1-1 9.622 9.622 0 0 1 1-1 9.623 9.623 0 0 1 1-1 9.622 9.622 0 0 1 1-1 9.62 9.62 0 0 1 1-1 9.623 9.623 0 0 1 1-1 9.622 9.622 0 0 1 1-1 9.623 9.623 0 0 1 1-1 9.622 9.622 0 0 1 1-1 9.62 9.62 0 0 1 1-1 9.623 9.623 0 0 1 1-1 9.622 9.622 0 0 1 1-1 9.623 9.623 0 0 1 1-1 9.622 9.622 0 0 1 1-1 9.622 9.622 0 0 1 1-1 9.624 9.624 0 0 1 1-1 9.622 9.622 0 0 1 1-1 9.622 9.622 0 0 1 1-1 9.621 9.621 0 0 1 1-1 9.622 9.622 0 0 1 1-1 9.624 9.624 0 0 1 1-1 9.622 9.622 0 0 1 1-1 9.623 9.623 0 0 1 1-1 9.623 9.623 0 0 1 1-1 9.62 9.62 0 0 1 1-1 9.624 9.624 0 0 1 1-1 9.622 9.622 0 0 1 1-1 9.623 9.623 0 0 1 1-1 9.623 9.623 0 0 1 1-1 9.622 9.622 0 0 1 1-1 9.622 9.622 0 0 1 1-1 9.622 9.622 0 0 1 1-1 9.623 9.623 0 0 1 1-1 9.622 9.622 0 0 1 1-1 9.62 9.62 0 0 1 1-1 9.623 9.623 0 0 1 1-1 9.622 9.622 0 0 1 1-1 9.623 9.623 0 0 1 1-1 9.622 9.622 0 0 1 1-1 9.62 9.62 0 0 1 1-1 9.623 9.623 0 0 1 1-1 9.622 9.622 0 0 1 1-1 9.623 9.623 0 0 1 1-1 9.622 9.622 0 0 1 1-1 9.62 9.62 0 0 1 1-1 9.623 9.623 0 0 1 1-1 9.621 9.621 0 0 1 1-1 9.621 9.621 0 0 1 1-1 9.623 9.623 0 0 1 1-1 9.62 9.62 0 0 1 1-1 9.624 9.624 0 0 1 1-1 9.62 9.62 0 0 1 1-1 9.541 9.541 0 0 1 7.243-3.32h86.062a9.563 9.563 0 0 1 9.563 9.564v39.25h-1v1h-1v1h-1v1h-1v1h-1v1h-1v1h-1v1h-1v1h-1v1h-1v1h-1v1h-1v1h-1v1h-1v1h-1v1h-1v1h-1v1h-1v1h-1v1h-1v1h-1v1h-1v1h-1v1h-1v1h-1v1h-1v1h-1v1h-1v1h-1v1h-1v1h-1v1h-1v1h-1v1h-1v1h-1v1h-1v1h-1v1h-1v1h-1v1h-1v1h-1v1h-1v1h-1v1h-1v1h-1v1h-1v1h-1v1h-1v1h-1v1h-1v1h-1v1h-1v1h-1v1h-1v1h-1v1h-1v1h-1v1h-1v1h-1v1h-1v1h-1v1h-1v1h-1v1h-1v1h-1v1h-1v1h-1v1h-1v1h-1v1h-1v1h-1v1h-1v1h-1v1h-1v1h-1v1h-1v1h-1v1h-1v1h-1v1h-1v1h-1v1h-1v1h-1v1h-1v1h-1v1h-1v1h-1v1h-1v1h-1v1h-1v1h-1v1h-1v1h-1v1h-1v1h-1v1h-1v1h-1v1h-1v1h-1v1h-1v1h-1v1h-1v1h-1v1h-1v1h-1v1h-1v1h-1v1h-1v1h-1v1h-1v1h-1v1h-1v1h-1v1h-1v1h-1v1h-1v1h-1v1h-1v1h-1v1h-1v1h-1v1h-1v1h-1v1h-1v1h-1v1h-1v1h-1v1h-1v1h-1v1h-1v1h-1v1h-1v1h-1v1h-1v1h-1v1h-1v1h-1v1h-1v1h-1v1h-1v1h-1v1h-1v1h-1v1h-1v1h-1v1h-1v1h-1v1h-1v1h-1v1h-1v1h-1v1h-1v1h-1v1h-1v1h-1v1h-1v1h-1v1h-1v1h-1v1h-1v1h-1v1h-1v1h-1v1h-1v1h-1v1h-1v1h-1v1h-1v1h-1v1h-1v1h-1v1h-1v1h-1v1h-1v1h-1v1h-1v1h-1v1h-1v1h-1v1h-1v1h-1v1h-1v1h-1v1h-1v1h-1v1h-1v1h-1v1h-1v1h-1v1h-1v1h-1v1h-1v1h-1v1h-1v1h-1v1h-1v1h-1v1h-1v1h-1v1h-1v1h-1v1h-1v1h-1v1h-1v1h-1v1h-1v1h-1v1h-1v1h-1v1h-1v1h-1v1h-1v1h-1v1h-1v1h-1v1h-1v1h-1v1h-1v1h-1v1h-1v1h-1v1h-1v1h-1v1h-1v1h-1v1h-1v1h-1v1h-1v1h-1v1h-1v1h-1v1h-1v1h-1v1h-1v1h-1v1h-1v1h-1v1h-1v1h-1v1h-1v1h-1v1h-1v1h-1v1h-1v1h-1v1h-1v1h-1v1h-1v1h-1v1h-1v1h-1v1h-1v1h-1v1h-1v1h-1v1h-1v1h-1v1h-1v1h-1v1h-1v1h-1v1h-1v1h-1v1h-1v1h-1v1h-1v1h-1v1h-1v1h-1v1h-1v1h-1v1.001h-1v1h-1v1h-1v1h-1v1h-1v1h-1v1h-1v1h-1v1h-1v1h-1v1h-1v1h-1v1h-1v1h-1v1h-1v1h-1v1h-1v1h-1v1h-1v1h-1v1h-1v1h-1v1h-1v1h-1v1h-1v1h-1v1h-1v1h-1v1h-1v1h-1v1h-1v1h-1v1h-1v1h-1v1h-1v1h-.999v1h-1v1h-1v1h-1v1h-1v1h-1v1h-1v1h-1v1h-1v1h-1v1h-1v1h-1v1h-1v1h-1v1h-1v1h-1v1h-1v1h-1v1h-1v1h-1v1h-1v1h-1v1h-1v1h-1v1h-1v1h-1v1h-1v1h-1v1h-1v1h-1v1h-1v1h-1v1h-1v1h-1v1h-1v1h-1v1h-1v1h-1v1h-1v1h-1v1h-1v1h-1v1h-1v76.5a9.562 9.562 0 0 1-9.562 9.562H9.562c-5.281 0-9.563-4.28-9.563-9.562v-114.75a9.54 9.54 0 0 1 3.32-7.244 9.62 9.62 0 0 1 1-1zM14.343 463.75h76.5V363.343h-76.5zm33.469 9.563a4.78 4.78 0 1 0 9.562 0 4.78 4.78 0 0 0-9.562 0zm90.843-23.907a4.781 4.781 0 1 0 9.563 0 4.781 4.781 0 0 0-9.563 0z"/><path fill="url(#ipwva)" d="M492.437 47.812a9.562 9.562 0 0 1 9.562 9.562v86.063a9.54 9.54 0 0 1-3.319 7.243 9.622 9.622 0 0 1-1 1 9.622 9.622 0 0 1-1 1 9.624 9.624 0 0 1-1 1 9.62 9.62 0 0 1-1 1 9.623 9.623 0 0 1-1 1 9.622 9.622 0 0 1-1 1 9.622 9.622 0 0 1-1 1 9.624 9.624 0 0 1-1 1 9.622 9.622 0 0 1-1 1 9.621 9.621 0 0 1-1 1 9.623 9.623 0 0 1-1 1 9.622 9.622 0 0 1-1 1 9.624 9.624 0 0 1-1 1 9.622 9.622 0 0 1-1 1 9.623 9.623 0 0 1-1 1 9.623 9.623 0 0 1-1 1 9.622 9.622 0 0 1-1 1 9.624 9.624 0 0 1-1 1 9.622 9.622 0 0 1-1 1 9.623 9.623 0 0 1-1 1 9.622 9.622 0 0 1-1 1 9.622 9.622 0 0 1-1 1 9.624 9.624 0 0 1-1 1 9.622 9.622 0 0 1-1 1 9.623 9.623 0 0 1-1 1 9.621 9.621 0 0 1-1 1 9.622 9.622 0 0 1-1 1 9.624 9.624 0 0 1-1 1 9.622 9.622 0 0 1-1 1 9.623 9.623 0 0 1-1 1 9.621 9.621 0 0 1-1 1 9.622 9.622 0 0 1-1 1 9.622 9.622 0 0 1-1 1 9.62 9.62 0 0 1-1 1 9.623 9.623 0 0 1-1 1 9.622 9.622 0 0 1-1 1 9.622 9.622 0 0 1-1 1 9.624 9.624 0 0 1-1 1 9.62 9.62 0 0 1-1 1 9.623 9.623 0 0 1-1 1 9.622 9.622 0 0 1-1 1 9.622 9.622 0 0 1-1 1 9.621 9.621 0 0 1-1 1 9.622 9.622 0 0 1-1 1 9.623 9.623 0 0 1-1 1 9.623 9.623 0 0 1-1 1 9.622 9.622 0 0 1-1 1 9.624 9.624 0 0 1-1 1 9.622 9.622 0 0 1-1 1 9.623 9.623 0 0 1-1 1 9.623 9.623 0 0 1-1 1 9.622 9.622 0 0 1-1 1 9.624 9.624 0 0 1-1 1 9.623 9.623 0 0 1-1 1 9.622 9.622 0 0 1-1 1 9.621 9.621 0 0 1-1 1 9.622 9.622 0 0 1-1 1 9.624 9.624 0 0 1-1 1 9.622 9.622 0 0 1-1 1 9.623 9.623 0 0 1-1 1 9.621 9.621 0 0 1-1 1 9.622 9.622 0 0 1-1 1 9.624 9.624 0 0 1-1 1 9.622 9.622 0 0 1-1 1 9.623 9.623 0 0 1-1 1 9.622 9.622 0 0 1-1 1 9.623 9.623 0 0 1-1 1 9.624 9.624 0 0 1-1 1 9.62 9.62 0 0 1-1 1 9.623 9.623 0 0 1-1 1 9.622 9.622 0 0 1-1 1 9.622 9.622 0 0 1-1 1 9.624 9.624 0 0 1-1 1 9.62 9.62 0 0 1-1 1 9.623 9.623 0 0 1-1 1 9.62 9.62 0 0 1-1 1 9.622 9.622 0 0 1-1 1 9.624 9.624 0 0 1-1 1 9.622 9.622 0 0 1-1 1 9.623 9.623 0 0 1-1 1 9.623 9.623 0 0 1-1 1 9.622 9.622 0 0 1-1 1 9.624 9.624 0 0 1-1 1 9.622 9.622 0 0 1-1 1 9.623 9.623 0 0 1-1 1 9.623 9.623 0 0 1-1 1 9.622 9.622 0 0 1-1 1 9.623 9.623 0 0 1-1 1 9.62 9.62 0 0 1-1 1 9.623 9.623 0 0 1-1 1 9.621 9.621 0 0 1-1 1 9.622 9.622 0 0 1-1 1 9.624 9.624 0 0 1-1 1 9.622 9.622 0 0 1-1 1 9.623 9.623 0 0 1-1 1 9.621 9.621 0 0 1-1 1 9.622 9.622 0 0 1-1 1 9.624 9.624 0 0 1-1 1 9.622 9.622 0 0 1-1 1 9.62 9.62 0 0 1-1 1 9.623 9.623 0 0 1-1 1 9.622 9.622 0 0 1-1 1 9.624 9.624 0 0 1-1 1 9.62 9.62 0 0 1-1 1 9.623 9.623 0 0 1-1 1 9.622 9.622 0 0 1-1 1 9.622 9.622 0 0 1-1 1 9.624 9.624 0 0 1-1 1 9.62 9.62 0 0 1-1 1 9.621 9.621 0 0 1-1 1 9.621 9.621 0 0 1-1 1 9.622 9.622 0 0 1-1 1 9.624 9.624 0 0 1-1 1 9.622 9.622 0 0 1-1 1 9.623 9.623 0 0 1-1 1 9.623 9.623 0 0 1-1 1 9.622 9.622 0 0 1-1 1 9.624 9.624 0 0 1-1 1 9.622 9.622 0 0 1-1 1 9.623 9.623 0 0 1-1 1 9.623 9.623 0 0 1-1 1 9.621 9.621 0 0 1-1 1 9.624 9.624 0 0 1-1 1 9.622 9.622 0 0 1-1 1 9.623 9.623 0 0 1-1 1 9.621 9.621 0 0 1-1 1 9.622 9.622 0 0 1-1 1 9.624 9.624 0 0 1-1 1 9.622 9.622 0 0 1-1 1 9.623 9.623 0 0 1-1 1 9.621 9.621 0 0 1-1 1 9.622 9.622 0 0 1-1 1 9.623 9.623 0 0 1-1 1 9.622 9.622 0 0 1-1 1 9.623 9.623 0 0 1-1 1 9.622 9.622 0 0 1-1 1 9.622 9.622 0 0 1-1 1 9.624 9.624 0 0 1-1 1 9.62 9.62 0 0 1-1 1 9.623 9.623 0 0 1-1 1 9.622 9.622 0 0 1-1 1 9.622 9.622 0 0 1-1 1 9.621 9.621 0 0 1-1 1 9.623 9.623 0 0 1-1 1 9.623 9.623 0 0 1-1 1 9.623 9.623 0 0 1-1 1 9.622 9.622 0 0 1-1 1 9.624 9.624 0 0 1-1 1 9.622 9.622 0 0 1-1 1 9.623 9.623 0 0 1-1 1 9.623 9.623 0 0 1-1 1 9.622 9.622 0 0 1-1 1 9.624 9.624 0 0 1-1 1 9.622 9.622 0 0 1-1 1 9.623 9.623 0 0 1-1 1 9.622 9.622 0 0 1-1 1 9.622 9.622 0 0 1-1 1 9.624 9.624 0 0 1-1 1 9.622 9.622 0 0 1-1 1 9.623 9.623 0 0 1-1 1 9.621 9.621 0 0 1-1 1 9.622 9.622 0 0 1-1 1 9.624 9.624 0 0 1-1 1 9.622 9.622 0 0 1-1 1 9.623 9.623 0 0 1-1 1 9.621 9.621 0 0 1-1 1 9.622 9.622 0 0 1-1 1 9.622 9.622 0 0 1-1 1 9.62 9.62 0 0 1-1 1 9.623 9.623 0 0 1-1 1 9.622 9.622 0 0 1-1 1 9.622 9.622 0 0 1-1 1 9.624 9.624 0 0 1-1 1 9.62 9.62 0 0 1-1 1 9.623 9.623 0 0 1-1 1 9.622 9.622 0 0 1-1 1 9.622 9.622 0 0 1-1 1 9.621 9.621 0 0 1-1 1 9.622 9.622 0 0 1-1 1 9.623 9.623 0 0 1-1 1 9.623 9.623 0 0 1-1 1 9.622 9.622 0 0 1-1 1 9.624 9.624 0 0 1-1 1 9.622 9.622 0 0 1-1 1 9.623 9.623 0 0 1-1 1 9.623 9.623 0 0 1-1 1 9.622 9.622 0 0 1-1 1 9.624 9.624 0 0 1-1 1 9.623 9.623 0 0 1-1 1 9.622 9.622 0 0 1-1 1 9.621 9.621 0 0 1-1 1 9.622 9.622 0 0 1-1 1 9.624 9.624 0 0 1-1 1 9.622 9.622 0 0 1-1 1 9.623 9.623 0 0 1-1 1 9.621 9.621 0 0 1-1 1 9.622 9.622 0 0 1-1 1 9.624 9.624 0 0 1-1 1 9.622 9.622 0 0 1-1 1 9.623 9.623 0 0 1-1 1 9.622 9.622 0 0 1-1 1 9.623 9.623 0 0 1-1 1 9.624 9.624 0 0 1-1 1 9.62 9.62 0 0 1-1 1 9.623 9.623 0 0 1-1 1 9.622 9.622 0 0 1-1 1 9.622 9.622 0 0 1-1 1 9.624 9.624 0 0 1-1 1 9.62 9.62 0 0 1-1 1 9.623 9.623 0 0 1-1 1 9.62 9.62 0 0 1-1 1 9.622 9.622 0 0 1-1 1 9.624 9.624 0 0 1-1 1 9.622 9.622 0 0 1-1 1 9.623 9.623 0 0 1-1 1 9.623 9.623 0 0 1-1 1 9.622 9.622 0 0 1-1 1 9.624 9.624 0 0 1-1 1 9.622 9.622 0 0 1-1 1 9.623 9.623 0 0 1-1 1 9.623 9.623 0 0 1-1 1 9.621 9.621 0 0 1-1 1 9.622 9.622 0 0 1-1 1 9.622 9.622 0 0 1-1 1 9.623 9.623 0 0 1-1 1 9.621 9.621 0 0 1-1 1 9.622 9.622 0 0 1-1 1 9.624 9.624 0 0 1-1 1 9.622 9.622 0 0 1-1 1 9.623 9.623 0 0 1-1 1 9.621 9.621 0 0 1-1 1 9.622 9.622 0 0 1-1 1 9.624 9.624 0 0 1-1 1 9.623 9.623 0 0 1-1 1 9.622 9.622 0 0 1-1 1 9.622 9.622 0 0 1-1 1 9.622 9.622 0 0 1-1 1 9.624 9.624 0 0 1-1 1 9.62 9.62 0 0 1-1 1 9.623 9.623 0 0 1-1 1 9.622 9.622 0 0 1-1 1 9.622 9.622 0 0 1-1 1 9.624 9.624 0 0 1-1 1 9.622 9.622 0 0 1-1 1 9.621 9.621 0 0 1-1 1 9.623 9.623 0 0 1-1 1 9.622 9.622 0 0 1-1 1 9.624 9.624 0 0 1-1 1 9.622 9.622 0 0 1-1 1 9.623 9.623 0 0 1-1 1 9.623 9.623 0 0 1-1 1 9.622 9.622 0 0 1-1 1 9.624 9.624 0 0 1-1 1 9.622 9.622 0 0 1-1 1 9.623 9.623 0 0 1-1 1 9.623 9.623 0 0 1-1 1 9.621 9.621 0 0 1-1 1 9.624 9.624 0 0 1-1 1 9.622 9.622 0 0 1-1 1 9.623 9.623 0 0 1-1 1 9.621 9.621 0 0 1-1 1 9.622 9.622 0 0 1-1 1 9.624 9.624 0 0 1-1 1 9.622 9.622 0 0 1-1 1 9.623 9.623 0 0 1-1 1 9.621 9.621 0 0 1-1 1 9.622 9.622 0 0 1-1 1 9.623 9.623 0 0 1-1 1 9.622 9.622 0 0 1-1 1 9.623 9.623 0 0 1-1 1 9.622 9.622 0 0 1-1 1 9.622 9.622 0 0 1-1 1 9.624 9.624 0 0 1-1 1 9.62 9.62 0 0 1-1 1 9.623 9.623 0 0 1-1 1 9.622 9.622 0 0 1-1 1 9.622 9.622 0 0 1-1 1 9.621 9.621 0 0 1-1 1 9.623 9.623 0 0 1-1 1 9.623 9.623 0 0 1-1 1 9.623 9.623 0 0 1-1 1 9.622 9.622 0 0 1-1 1 9.624 9.624 0 0 1-1 1 9.622 9.622 0 0 1-1 1 9.623 9.623 0 0 1-1 1 9.623 9.623 0 0 1-1 1 9.622 9.622 0 0 1-1 1 9.624 9.624 0 0 1-1 1 9.622 9.622 0 0 1-1 1 9.623 9.623 0 0 1-1 1 9.622 9.622 0 0 1-1 1 9.622 9.622 0 0 1-1 1 9.624 9.624 0 0 1-1 1 9.622 9.622 0 0 1-1 1 9.623 9.623 0 0 1-1 1 9.621 9.621 0 0 1-1 1 9.622 9.622 0 0 1-1 1 9.624 9.624 0 0 1-1 1 9.622 9.622 0 0 1-1 1 9.623 9.623 0 0 1-1 1 9.621 9.621 0 0 1-1 1 9.622 9.622 0 0 1-1 1 9.622 9.622 0 0 1-1 1 9.62 9.62 0 0 1-1 1 9.623 9.623 0 0 1-1 1 9.622 9.622 0 0 1-1 1 9.622 9.622 0 0 1-1 1 9.624 9.624 0 0 1-1 1 9.62 9.62 0 0 1-1 1 9.623 9.623 0 0 1-1 1 9.622 9.622 0 0 1-1 1 9.622 9.622 0 0 1-1 1 9.621 9.621 0 0 1-1 1 9.622 9.622 0 0 1-1 1 9.623 9.623 0 0 1-1 1 9.623 9.623 0 0 1-1 1 9.622 9.622 0 0 1-1 1 9.624 9.624 0 0 1-1 1 9.622 9.622 0 0 1-1 1 9.623 9.623 0 0 1-1 1 9.623 9.623 0 0 1-1 1 9.622 9.622 0 0 1-1 1 9.623 9.623 0 0 1-1 1 9.62 9.62 0 0 1-1 1 9.623 9.623 0 0 1-1 1 9.621 9.621 0 0 1-1 1 9.622 9.622 0 0 1-1 1 9.624 9.624 0 0 1-1 1 9.622 9.622 0 0 1-1 1 9.623 9.623 0 0 1-1 1 9.621 9.621 0 0 1-1 1 9.622 9.622 0 0 1-1 1 9.624 9.624 0 0 1-1 1 9.622 9.622 0 0 1-1 1 9.62 9.62 0 0 1-1 1 9.623 9.623 0 0 1-1 1 9.622 9.622 0 0 1-1 1 9.624 9.624 0 0 1-1 1 9.62 9.62 0 0 1-1 1 9.623 9.623 0 0 1-1 1 9.622 9.622 0 0 1-1 1 9.622 9.622 0 0 1-1 1 9.624 9.624 0 0 1-1 1 9.62 9.62 0 0 1-1 1 9.621 9.621 0 0 1-1 1 9.621 9.621 0 0 1-1 1 9.622 9.622 0 0 1-1 1 9.624 9.624 0 0 1-1 1 9.54 9.54 0 0 1-7.243 3.32H28.687c-5.281 0-9.563-4.282-9.563-9.563v-4.78h114.75v-76.5h-23.906v-14.345h1v-1h1v-1h1v-1h1v-1h1v-1h1v-1h1v-1h1v-1h1v-1h1v-1h1v-1h1v-1h1v-1h1v-1h1v-1h1v-1h1v-1h1v-1h1v-1h1v-1h1v-1h1v-1h1v-1h1v-1h1v-1h1v-1h1v-1h1v-1h1v-1h1v-1h1v-1h1v-1h1v-1h1v-1h1v-1h1v-1h1v-1h1v-1h1v-1h1v-1h1v-1h1v-1h1v-1h1v-1h1v-1h1v-1h1v-1h1v-1h1v-1h1v-1h1v-1h1v-1h1v-1h1v-1h1v-1h1v-1h1v-1h1v-1h1v-1h1v-1h1v-1h1v-1h1v-1h1v-1h1v-1h1v-1h1v-1h1v-1h1v-1h1v-1h1v-1h1v-1h1v-1h1v-1h1v-1h1v-1h1v-1h1v-1h1v-1h1v-1h1v-1h1v-1h1v-1h1v-1h1v-1h1v-1h1v-1h1v-1h1v-1h1v-1h1v-1h1v-1h1v-1h1v-1h1v-1h1v-1h1v-1h1v-1h1v-1h1v-1h1v-1h1v-1h1v-1h1v-1h1v-1h1v-1h1v-1h1v-1h1v-1h1v-1h1v-1h1v-1h1v-1h1v-1h1v-1h1v-1h1v-1h1v-1h1v-1h1v-1h1v-1h1v-1h1v-1h1v-1h1v-1h1v-1h1v-1h1v-1h1v-1h1v-1h1v-1h1v-1h1v-1h1v-1h1v-1h1v-1h1v-1h1v-1h1v-1h1v-1h1v-1h1v-1h1v-1h1v-1h1v-1h1v-1h1v-1h1v-1h1v-1h1v-1h1v-1h1v-1h1v-1h1v-1h1v-1h1v-1h1v-1h1v-1h1v-1h1v-1h1v-1h1v-1h1v-1h1v-1h1v-1h1v-1h1v-1h1v-1h1v-1h1v-1h1v-1h1v-1h1v-1h1v-1h1v-1h1v-1h1v-1h1v-1h1v-1h1v-1h1v-1h1v-1h1v-1h1v-1h1v-1h1v-1h1v-1h1v-1h1v-1h1v-1h1v-1h1v-1h1v-1h1v-1h1v-1h1v-1h1v-1h1v-1h1v-1h1v-1h1v-1h1v-1h1v-1h1v-1h1v-1h1v-1h1v-1h1v-1h1v-1h1v-1h1v-1h1v-1h1v-1h1v-1h1v-1h1v-1h1v-1h1v-1h1v-1h1v-1h1v-1h1v-1h1v-1h1v-1h1v-1h1v-1h1v-1h1v-1h1v-1h1v-1h1v-1h1v-1h1v-1h1v-1h1v-1h1v-1h1v-1h1v-1h1v-1h1v-1h1v-1h1v-1h1v-1h1v-1h1v-1h1v-1h1v-1h1v-1h1v-1h1v-1h1v-1h1v-1h1v-1h1v-1h1v-1h1v-1h1v-1h1v-1h1v-1h1v-1h1v-1h1v-1h1v-1h1v-1h1v-1h1v-1h1v-1h1v-1h1v-1h1v-1h1v-1h1v-1h.999v-1h1v-1h1v-1h1v-1h1v-1h1v-1h1v-1h1v-1h1v-1h1v-1h1v-1h1v-1h1v-1h1v-1h1v-1h1v-1h1v-1h1v-1h1v-1h1v-1h1v-1h1v-1h1v-1h1v-1h1v-1h1v-1h1v-1h1v-1h1v-1h1v-1h1v-1h1v-1h1v-1h1v-1h1v-1h1v-1h1v-1h1v-1h1v-1h1v-1h1v-1h1v-1h1v-1h1v-1h1v-1h1v-1h1v-1h1v-1h1v-1h1v-1h1v-1h1v-1h1v-1h1v-1h1v-1h1v-1h1v-1h1v-1h1v-1h1v-1h1v-1h1v-1h1v-1h1v-1h1v-1h1v-1h1V57.81h1v-1h1v-1h1v-1h1v-1h1v-1h1v-1h1v-1h1v-1h1v-1h1v-1zM4.318 350.318a9.623 9.623 0 0 1 1-1 9.622 9.622 0 0 1 1-1 9.623 9.623 0 0 1 1-1 9.622 9.622 0 0 1 1-1 9.62 9.62 0 0 1 1-1 9.622 9.622 0 0 1 1-1 9.622 9.622 0 0 1 1-1 9.622 9.622 0 0 1 1-1 9.623 9.623 0 0 1 1-1 9.62 9.62 0 0 1 1-1 9.621 9.621 0 0 1 1-1 9.622 9.622 0 0 1 1-1 9.623 9.623 0 0 1 1-1 9.623 9.623 0 0 1 1-1 9.62 9.62 0 0 1 1-1 9.624 9.624 0 0 1 1-1 9.622 9.622 0 0 1 1-1 9.623 9.623 0 0 1 1-1 9.623 9.623 0 0 1 1-1 9.62 9.62 0 0 1 1-1 9.624 9.624 0 0 1 1-1 9.623 9.623 0 0 1 1-1 9.622 9.622 0 0 1 1-1 9.622 9.622 0 0 1 1-1 9.62 9.62 0 0 1 1-1 9.623 9.623 0 0 1 1-1 9.622 9.622 0 0 1 1-1 9.623 9.623 0 0 1 1-1 9.622 9.622 0 0 1 1-1 9.62 9.62 0 0 1 1-1 9.623 9.623 0 0 1 1-1 9.622 9.622 0 0 1 1-1 9.623 9.623 0 0 1 1-1 9.622 9.622 0 0 1 1-1 9.62 9.62 0 0 1 1-1 9.623 9.623 0 0 1 1-1 9.622 9.622 0 0 1 1-1 9.623 9.623 0 0 1 1-1 9.622 9.622 0 0 1 1-1 9.622 9.622 0 0 1 1-1 9.624 9.624 0 0 1 1-1 9.622 9.622 0 0 1 1-1 9.622 9.622 0 0 1 1-1 9.621 9.621 0 0 1 1-1 9.622 9.622 0 0 1 1-1 9.624 9.624 0 0 1 1-1 9.622 9.622 0 0 1 1-1 9.623 9.623 0 0 1 1-1 9.623 9.623 0 0 1 1-1 9.62 9.62 0 0 1 1-1 9.624 9.624 0 0 1 1-1 9.622 9.622 0 0 1 1-1 9.623 9.623 0 0 1 1-1 9.623 9.623 0 0 1 1-1 9.62 9.62 0 0 1 1-1 9.623 9.623 0 0 1 1-1 9.622 9.622 0 0 1 1-1 9.623 9.623 0 0 1 1-1 9.622 9.622 0 0 1 1-1 9.62 9.62 0 0 1 1-1 9.623 9.623 0 0 1 1-1 9.622 9.622 0 0 1 1-1 9.623 9.623 0 0 1 1-1 9.622 9.622 0 0 1 1-1 9.62 9.62 0 0 1 1-1 9.623 9.623 0 0 1 1-1 9.622 9.622 0 0 1 1-1 9.623 9.623 0 0 1 1-1 9.622 9.622 0 0 1 1-1 9.62 9.62 0 0 1 1-1 9.623 9.623 0 0 1 1-1 9.622 9.622 0 0 1 1-1 9.622 9.622 0 0 1 1-1 9.623 9.623 0 0 1 1-1 9.62 9.62 0 0 1 1-1 9.624 9.624 0 0 1 1-1 9.622 9.622 0 0 1 1-1 9.623 9.623 0 0 1 1-1 9.624 9.624 0 0 1 1-1 9.62 9.62 0 0 1 1-1 9.624 9.624 0 0 1 1-1 9.622 9.622 0 0 1 1-1 9.623 9.623 0 0 1 1-1 9.623 9.623 0 0 1 1-1 9.62 9.62 0 0 1 1-1 9.624 9.624 0 0 1 1-1 9.622 9.622 0 0 1 1-1 9.623 9.623 0 0 1 1-1 9.623 9.623 0 0 1 1-1 9.622 9.622 0 0 1 1-1 9.622 9.622 0 0 1 1-1 9.622 9.622 0 0 1 1-1 9.623 9.623 0 0 1 1-1 9.622 9.622 0 0 1 1-1 9.62 9.62 0 0 1 1-1 9.623 9.623 0 0 1 1-1 9.622 9.622 0 0 1 1-1 9.623 9.623 0 0 1 1-1 9.622 9.622 0 0 1 1-1 9.62 9.62 0 0 1 1-1 9.623 9.623 0 0 1 1-1 9.622 9.622 0 0 1 1-1 9.623 9.623 0 0 1 1-1 9.622 9.622 0 0 1 1-1 9.62 9.62 0 0 1 1-1 9.623 9.623 0 0 1 1-1 9.621 9.621 0 0 1 1-1 9.621 9.621 0 0 1 1-1 9.623 9.623 0 0 1 1-1 9.62 9.62 0 0 1 1-1 9.624 9.624 0 0 1 1-1 9.62 9.62 0 0 1 1-1 9.622 9.622 0 0 1 1-1 9.623 9.623 0 0 1 1-1 9.62 9.62 0 0 1 1-1 9.624 9.624 0 0 1 1-1 9.622 9.622 0 0 1 1-1 9.623 9.623 0 0 1 1-1 9.623 9.623 0 0 1 1-1 9.62 9.62 0 0 1 1-1 9.624 9.624 0 0 1 1-1 9.622 9.622 0 0 1 1-1 9.62 9.62 0 0 1 1-1 9.621 9.621 0 0 1 1-1 9.62 9.62 0 0 1 1-1 9.623 9.623 0 0 1 1-1 9.622 9.622 0 0 1 1-1 9.623 9.623 0 0 1 1-1 9.622 9.622 0 0 1 1-1 9.62 9.62 0 0 1 1-1 9.623 9.623 0 0 1 1-1 9.622 9.622 0 0 1 1-1 9.623 9.623 0 0 1 1-1 9.622 9.622 0 0 1 1-1 9.62 9.62 0 0 1 1-1 9.623 9.623 0 0 1 1-1 9.622 9.622 0 0 1 1-1 9.623 9.623 0 0 1 1-1 9.622 9.622 0 0 1 1-1 9.622 9.622 0 0 1 1-1 9.622 9.622 0 0 1 1-1 9.622 9.622 0 0 1 1-1 9.622 9.622 0 0 1 1-1 9.623 9.623 0 0 1 1-1 9.62 9.62 0 0 1 1-1 9.621 9.621 0 0 1 1-1 9.622 9.622 0 0 1 1-1 9.623 9.623 0 0 1 1-1 9.623 9.623 0 0 1 1-1 9.62 9.62 0 0 1 1-1 9.624 9.624 0 0 1 1-1 9.622 9.622 0 0 1 1-1 9.623 9.623 0 0 1 1-1 9.623 9.623 0 0 1 1-1 9.62 9.62 0 0 1 1-1 9.624 9.624 0 0 1 1-1 9.623 9.623 0 0 1 1-1 9.622 9.622 0 0 1 1-1 9.622 9.622 0 0 1 1-1 9.62 9.62 0 0 1 1-1 9.623 9.623 0 0 1 1-1 9.622 9.622 0 0 1 1-1 9.623 9.623 0 0 1 1-1 9.622 9.622 0 0 1 1-1 9.62 9.62 0 0 1 1-1 9.623 9.623 0 0 1 1-1 9.622 9.622 0 0 1 1-1 9.623 9.623 0 0 1 1-1 9.622 9.622 0 0 1 1-1 9.62 9.62 0 0 1 1-1 9.623 9.623 0 0 1 1-1 9.622 9.622 0 0 1 1-1 9.623 9.623 0 0 1 1-1 9.622 9.622 0 0 1 1-1 9.622 9.622 0 0 1 1-1 9.624 9.624 0 0 1 1-1 9.622 9.622 0 0 1 1-1 9.622 9.622 0 0 1 1-1 9.621 9.621 0 0 1 1-1 9.622 9.622 0 0 1 1-1 9.624 9.624 0 0 1 1-1 9.622 9.622 0 0 1 1-1 9.623 9.623 0 0 1 1-1 9.623 9.623 0 0 1 1-1 9.62 9.62 0 0 1 1-1 9.624 9.624 0 0 1 1-1 9.622 9.622 0 0 1 1-1 9.623 9.623 0 0 1 1-1 9.623 9.623 0 0 1 1-1 9.62 9.62 0 0 1 1-1 9.623 9.623 0 0 1 1-1 9.622 9.622 0 0 1 1-1 9.623 9.623 0 0 1 1-1 9.622 9.622 0 0 1 1-1 9.62 9.62 0 0 1 1-1 9.623 9.623 0 0 1 1-1 9.622 9.622 0 0 1 1-1 9.623 9.623 0 0 1 1-1 9.622 9.622 0 0 1 1-1 9.62 9.62 0 0 1 1-1 9.623 9.623 0 0 1 1-1 9.622 9.622 0 0 1 1-1 9.623 9.623 0 0 1 1-1 9.622 9.622 0 0 1 1-1 9.62 9.62 0 0 1 1-1 9.623 9.623 0 0 1 1-1 9.622 9.622 0 0 1 1-1 9.622 9.622 0 0 1 1-1 9.623 9.623 0 0 1 1-1 9.62 9.62 0 0 1 1-1 9.624 9.624 0 0 1 1-1 9.622 9.622 0 0 1 1-1 9.623 9.623 0 0 1 1-1 9.624 9.624 0 0 1 1-1 9.62 9.62 0 0 1 1-1 9.624 9.624 0 0 1 1-1 9.622 9.622 0 0 1 1-1 9.623 9.623 0 0 1 1-1 9.623 9.623 0 0 1 1-1 9.62 9.62 0 0 1 1-1 9.624 9.624 0 0 1 1-1 9.622 9.622 0 0 1 1-1 9.623 9.623 0 0 1 1-1 9.622 9.622 0 0 1 1-1 9.623 9.623 0 0 1 1-1 9.623 9.623 0 0 1 1-1 9.622 9.622 0 0 1 1-1 9.623 9.623 0 0 1 1-1 9.622 9.622 0 0 1 1-1 9.62 9.62 0 0 1 1-1 9.623 9.623 0 0 1 1-1 9.622 9.622 0 0 1 1-1 9.623 9.623 0 0 1 1-1 9.622 9.622 0 0 1 1-1 9.62 9.62 0 0 1 1-1 9.623 9.623 0 0 1 1-1 9.622 9.622 0 0 1 1-1 9.623 9.623 0 0 1 1-1 9.622 9.622 0 0 1 1-1 9.62 9.62 0 0 1 1-1 9.622 9.622 0 0 1 1-1 9.622 9.622 0 0 1 1-1 9.622 9.622 0 0 1 1-1 9.623 9.623 0 0 1 1-1 9.62 9.62 0 0 1 1-1 9.621 9.621 0 0 1 1-1 9.622 9.622 0 0 1 1-1 9.623 9.623 0 0 1 1-1 9.623 9.623 0 0 1 1-1 9.62 9.62 0 0 1 1-1 9.624 9.624 0 0 1 1-1 9.622 9.622 0 0 1 1-1 9.623 9.623 0 0 1 1-1 9.623 9.623 0 0 1 1-1 9.62 9.62 0 0 1 1-1 9.624 9.624 0 0 1 1-1 9.622 9.622 0 0 1 1-1 9.62 9.62 0 0 1 1-1 9.621 9.621 0 0 1 1-1 9.62 9.62 0 0 1 1-1 9.623 9.623 0 0 1 1-1 9.622 9.622 0 0 1 1-1 9.623 9.623 0 0 1 1-1 9.622 9.622 0 0 1 1-1 9.62 9.62 0 0 1 1-1 9.623 9.623 0 0 1 1-1 9.622 9.622 0 0 1 1-1 9.623 9.623 0 0 1 1-1 9.622 9.622 0 0 1 1-1 9.62 9.62 0 0 1 1-1 9.623 9.623 0 0 1 1-1 9.622 9.622 0 0 1 1-1 9.623 9.623 0 0 1 1-1 9.622 9.622 0 0 1 1-1 9.622 9.622 0 0 1 1-1 9.622 9.622 0 0 1 1-1 9.622 9.622 0 0 1 1-1 9.622 9.622 0 0 1 1-1 9.623 9.623 0 0 1 1-1 9.62 9.62 0 0 1 1-1 9.621 9.621 0 0 1 1-1 9.622 9.622 0 0 1 1-1 9.623 9.623 0 0 1 1-1 9.623 9.623 0 0 1 1-1 9.62 9.62 0 0 1 1-1 9.624 9.624 0 0 1 1-1 9.622 9.622 0 0 1 1-1 9.623 9.623 0 0 1 1-1 9.623 9.623 0 0 1 1-1 9.62 9.62 0 0 1 1-1 9.624 9.624 0 0 1 1-1 9.623 9.623 0 0 1 1-1 9.622 9.622 0 0 1 1-1 9.622 9.622 0 0 1 1-1 9.62 9.62 0 0 1 1-1 9.623 9.623 0 0 1 1-1 9.622 9.622 0 0 1 1-1 9.623 9.623 0 0 1 1-1 9.622 9.622 0 0 1 1-1 9.62 9.62 0 0 1 1-1 9.623 9.623 0 0 1 1-1 9.622 9.622 0 0 1 1-1 9.623 9.623 0 0 1 1-1 9.622 9.622 0 0 1 1-1 9.62 9.62 0 0 1 1-1 9.623 9.623 0 0 1 1-1 9.622 9.622 0 0 1 1-1 9.623 9.623 0 0 1 1-1 9.622 9.622 0 0 1 1-1 9.622 9.622 0 0 1 1-1 9.624 9.624 0 0 1 1-1 9.622 9.622 0 0 1 1-1 9.622 9.622 0 0 1 1-1 9.621 9.621 0 0 1 1-1 9.622 9.622 0 0 1 1-1 9.624 9.624 0 0 1 1-1 9.622 9.622 0 0 1 1-1 9.623 9.623 0 0 1 1-1 9.623 9.623 0 0 1 1-1 9.62 9.62 0 0 1 1-1 9.624 9.624 0 0 1 1-1 9.622 9.622 0 0 1 1-1 9.623 9.623 0 0 1 1-1 9.623 9.623 0 0 1 1-1 9.622 9.622 0 0 1 1-1 9.622 9.622 0 0 1 1-1 9.622 9.622 0 0 1 1-1 9.623 9.623 0 0 1 1-1 9.622 9.622 0 0 1 1-1 9.62 9.62 0 0 1 1-1 9.623 9.623 0 0 1 1-1 9.622 9.622 0 0 1 1-1 9.623 9.623 0 0 1 1-1 9.622 9.622 0 0 1 1-1 9.62 9.62 0 0 1 1-1 9.623 9.623 0 0 1 1-1 9.622 9.622 0 0 1 1-1 9.623 9.623 0 0 1 1-1 9.622 9.622 0 0 1 1-1 9.62 9.62 0 0 1 1-1 9.623 9.623 0 0 1 1-1 9.621 9.621 0 0 1 1-1 9.621 9.621 0 0 1 1-1 9.623 9.623 0 0 1 1-1 9.62 9.62 0 0 1 1-1 9.624 9.624 0 0 1 1-1 9.62 9.62 0 0 1 1-1 9.541 9.541 0 0 1 7.243-3.32h86.062a9.563 9.563 0 0 1 9.563 9.564v39.25h-1v1h-1v1h-1v1h-1v1h-1v1h-1v1h-1v1h-1v1h-1v1h-1v1h-1v1h-1v1h-1v1h-1v1h-1v1h-1v1h-1v1h-1v1h-1v1h-1v1h-1v1h-1v1h-1v1h-1v1h-1v1h-1v1h-1v1h-1v1h-1v1h-1v1h-1v1h-1v1h-1v1h-1v1h-1v1h-1v1h-1v1h-1v1h-1v1h-1v1h-1v1h-1v1h-1v1h-1v1h-1v1h-1v1h-1v1h-1v1h-1v1h-1v1h-1v1h-1v1h-1v1h-1v1h-1v1h-1v1h-1v1h-1v1h-1v1h-1v1h-1v1h-1v1h-1v1h-1v1h-1v1h-1v1h-1v1h-1v1h-1v1h-1v1h-1v1h-1v1h-1v1h-1v1h-1v1h-1v1h-1v1h-1v1h-1v1h-1v1h-1v1h-1v1h-1v1h-1v1h-1v1h-1v1h-1v1h-1v1h-1v1h-1v1h-1v1h-1v1h-1v1h-1v1h-1v1h-1v1h-1v1h-1v1h-1v1h-1v1h-1v1h-1v1h-1v1h-1v1h-1v1h-1v1h-1v1h-1v1h-1v1h-1v1h-1v1h-1v1h-1v1h-1v1h-1v1h-1v1h-1v1h-1v1h-1v1h-1v1h-1v1h-1v1h-1v1h-1v1h-1v1h-1v1h-1v1h-1v1h-1v1h-1v1h-1v1h-1v1h-1v1h-1v1h-1v1h-1v1h-1v1h-1v1h-1v1h-1v1h-1v1h-1v1h-1v1h-1v1h-1v1h-1v1h-1v1h-1v1h-1v1h-1v1h-1v1h-1v1h-1v1h-1v1h-1v1h-1v1h-1v1h-1v1h-1v1h-1v1h-1v1h-1v1h-1v1h-1v1h-1v1h-1v1h-1v1h-1v1h-1v1h-1v1h-1v1h-1v1h-1v1h-1v1h-1v1h-1v1h-1v1h-1v1h-1v1h-1v1h-1v1h-1v1h-1v1h-1v1h-1v1h-1v1h-1v1h-1v1h-1v1h-1v1h-1v1h-1v1h-1v1h-1v1h-1v1h-1v1h-1v1h-1v1h-1v1h-1v1h-1v1h-1v1h-1v1h-1v1h-1v1h-1v1h-1v1h-1v1h-1v1h-1v1h-1v1h-1v1h-1v1h-1v1h-1v1h-1v1h-1v1h-1v1h-1v1h-1v1h-1v1h-1v1h-1v1h-1v1h-1v1h-1v1h-1v1h-1v1h-1v1h-1v1h-1v1h-1v1h-1v1h-1v1h-1v1h-1v1h-1v1h-1v1h-1v1h-1v1h-1v1h-1v1h-1v1h-1v1h-1v1h-1v1h-1v1h-1v1h-1v1h-1v1h-1v1h-1v1h-1v1h-1v1h-1v1h-1v1h-1v1h-1v1h-1v1h-1v1h-1v1h-1v1h-1v1h-1v1h-1v1h-1v1h-1v1h-1v1h-1v1h-1v1h-1v1.001h-1v1h-1v1h-1v1h-1v1h-1v1h-1v1h-1v1h-1v1h-1v1h-1v1h-1v1h-1v1h-1v1h-1v1h-1v1h-1v1h-1v1h-1v1h-1v1h-1v1h-1v1h-1v1h-1v1h-1v1h-1v1h-1v1h-1v1h-1v1h-1v1h-1v1h-1v1h-1v1h-1v1h-1v1h-1v1h-.999v1h-1v1h-1v1h-1v1h-1v1h-1v1h-1v1h-1v1h-1v1h-1v1h-1v1h-1v1h-1v1h-1v1h-1v1h-1v1h-1v1h-1v1h-1v1h-1v1h-1v1h-1v1h-1v1h-1v1h-1v1h-1v1h-1v1h-1v1h-1v1h-1v1h-1v1h-1v1h-1v1h-1v1h-1v1h-1v1h-1v1h-1v1h-1v1h-1v1h-1v1h-1v1h-1v76.5a9.562 9.562 0 0 1-9.562 9.562H9.562c-5.281 0-9.563-4.28-9.563-9.562v-114.75a9.54 9.54 0 0 1 3.32-7.244 9.62 9.62 0 0 1 1-1zM14.343 463.75h76.5V363.343h-76.5zm33.469 9.563a4.78 4.78 0 1 0 9.562 0 4.78 4.78 0 0 0-9.562 0zm90.843-23.907a4.781 4.781 0 1 0 9.563 0 4.781 4.781 0 0 0-9.563 0z"/></g></g></svg>